<svg width="206" height="80" viewBox="0 0 206 80" fill="none" xmlns="http://www.w3.org/2000/svg">
<g clip-path="url(#clip0_2297_17343)">
<path d="M66.852 24.5391C69.1241 24.5391 71.0932 25.9646 71.5943 27.9721L74.2635 38.6645L78.5872 27.487C79.2703 25.7212 81.1103 24.5391 83.1758 24.5391H90.7105L77.6576 59.0393C76.243 62.7783 72.3619 65.2899 67.9987 65.2899H58.4574V62.5418C58.4574 60.1931 60.4918 58.2576 63.0813 58.1425C64.8024 58.0661 65.8527 57.9352 66.2321 57.7499C66.8783 57.4344 67.503 56.2209 68.1061 54.1093L59.3891 24.5391H66.852ZM99.0269 24.5391C99.7752 24.5287 100.493 24.8072 101.001 25.3053C101.508 25.8033 101.758 26.4737 101.687 27.1485L100.075 46.0889C99.9485 47.5882 100.204 48.1991 100.84 48.642C101.273 48.8827 101.776 48.999 102.283 48.9755C102.808 49.0013 103.33 48.8853 103.782 48.642C104.809 48.0871 104.965 46.9773 105.045 46.0329L106.641 27.1485C106.785 25.6882 108.123 24.5622 109.742 24.5391H117.221L114.717 54.1402L104.371 54.1329L104.623 51.1343C103.887 51.8645 103.482 52.392 102.714 52.9705C100.987 54.272 99.5562 54.7997 97.2268 54.7997C91.8318 54.7997 90.3218 51.6357 89.8651 49.803C89.5964 48.7467 89.5508 47.6928 89.7442 45.422L91.5094 24.5391H99.0269ZM37.0437 27.48C40.7267 24.8715 46.0474 23.856 49.1182 24.018C56.7137 24.4185 60.6568 28.6921 60.1396 33.8525C59.4678 40.5566 51.7647 41.5854 49.1182 41.9102C45.3464 42.3731 42.5356 43.4064 40.6856 45.0101C39.2571 39.5257 42.1465 36.2402 49.3539 35.1536C50.3331 35.0059 52.6113 34.5814 52.7471 32.6204C52.8828 30.6594 50.1057 29.0856 46.3194 30.0799C41.6309 31.3112 39.0455 35.2437 38.3428 38.4485C37.6401 41.6533 37.739 46.91 43.4122 47.058C49.1832 47.2086 55.9993 43.6849 58.3111 42.3838L58.4957 42.2793C58.7849 42.1143 58.9817 41.9967 59.0706 41.943L59.121 41.9123C55.9175 47.7446 51.546 49.9308 51.546 49.9308C53.2994 50.7673 57.2984 50.4158 57.6356 50.3844L57.6583 50.3823C55.8635 52.9386 46.1434 56.6718 37.6591 52.0729C29.3446 47.566 31.815 38.8019 31.9115 38.4589L31.9144 38.4485C30.5948 39.7943 29.2925 42.3826 29.1019 42.7401L29.0815 42.777C28.7635 37.0554 32.52 30.6839 37.0437 27.48ZM27.0953 14.9256C27.8435 14.9149 28.5614 15.1934 29.0691 15.6915C29.5768 16.1895 29.8263 16.8599 29.7552 17.5347L26.66 54.1329H19.0584C18.309 54.1464 17.5889 53.8693 17.0793 53.3714C16.5697 52.8735 16.3191 52.2021 16.3905 51.5262L19.4937 14.9256H27.0953ZM49.0037 31.3799C49.6448 31.3799 50.1644 31.8507 50.1644 32.4314C50.1644 33.012 49.6448 33.4828 49.0037 33.4828C48.3627 33.4828 47.8431 33.012 47.8431 32.4314C47.8431 31.8507 48.3627 31.3799 49.0037 31.3799Z" fill="white"/>
<path d="M169.855 40.7575V42.8124H172.867V43.6372H172.079C172.189 47.3562 172.457 50.9594 172.867 54.4903H170.801C170.391 50.916 170.186 47.3128 170.06 43.6372H169.855V52.638H170.47V53.4629H169.855V54.4758H166.417V53.4629H165.849V52.638H166.417V43.6372H166.212C166.086 47.3128 165.849 50.916 165.471 54.4903H163.405C163.799 50.9594 164.052 47.3562 164.178 43.6372H163.389V42.8124H166.417V40.7575H169.855ZM163.137 40.7431C162.963 42.2914 162.711 43.8253 162.333 45.3158H162.837V54.4758H159.384V48.0797H157.964C158.832 45.5329 159.399 43.0873 159.652 40.7431H163.137ZM187.171 46.8497C187.754 46.8497 188.212 47.2839 188.212 47.8048V53.5208C188.212 54.0417 187.754 54.4758 187.171 54.4758H183.559V53.651H184.017C184.348 53.651 184.616 53.405 184.616 53.1011V52.5657H179.317V54.4758H175.722V47.8048C175.722 47.2839 176.179 46.8497 176.762 46.8497H187.171ZM139.56 40.772C139.324 41.7126 138.646 42.1467 137.274 42.1467H129.31C128.978 42.1467 128.71 42.3927 128.71 42.6966V45.9381C128.71 46.242 128.978 46.488 129.31 46.488H130.524V43.2465H134.119V46.488H139.134V47.3128H134.119V53.5063C134.119 54.0417 133.646 54.4614 133.063 54.4614H129.152V53.6365H129.925C130.256 53.6365 130.524 53.3905 130.524 53.0866V47.3128H126.471C125.872 47.3128 125.414 46.8931 125.414 46.3577V42.277C125.414 41.756 125.872 41.3219 126.471 41.3219L134.216 41.3216C135.047 41.3167 135.491 41.2544 135.791 40.772H139.56ZM156.308 53.5352V54.3601H141.39V53.5352H156.308ZM129.341 48.21C129.057 50.2793 128.6 52.2473 127.922 54.1141H124.862C125.572 52.1894 126.061 50.2214 126.329 48.21H129.341ZM138.299 48.21C138.567 50.2214 139.056 52.1894 139.765 54.1141H136.706C136.028 52.2473 135.57 50.2793 135.286 48.21H138.299ZM147.193 40.7286C147.098 41.1917 146.988 41.6403 146.862 42.0599H153.28C153.895 42.0599 154.305 42.5953 154.116 43.1597C153.832 43.8977 153.58 44.4476 153.217 45.1132H154.006C154.589 45.1132 155.047 45.5329 155.047 46.0683V51.9579C155.047 52.4933 154.589 52.913 154.006 52.913H143.676C143.109 52.913 142.635 52.4933 142.635 51.9579V46.0683C142.635 45.5329 143.109 45.1132 143.676 45.1132H149.685C150.047 44.4765 150.284 43.9411 150.615 43.261C150.694 43.0873 150.552 42.8847 150.347 42.8847H146.578C146.357 43.4636 146.105 43.999 145.805 44.5055H142.289C143.077 43.2176 143.534 42.0165 143.881 40.7286H147.193ZM151.609 49.5124H150.489V52.0881H151.009C151.341 52.0881 151.609 51.8421 151.609 51.5383V49.5124ZM147.193 49.5124H146.073V51.5383C146.073 51.8421 146.341 52.0881 146.673 52.0881H147.193V49.5124ZM184.616 50.0767H179.317V51.7409H184.616V50.0767ZM184.017 47.6746H179.917C179.585 47.6746 179.317 47.9206 179.317 48.2245V49.2519H184.616V48.2245C184.616 47.9206 184.348 47.6746 184.017 47.6746ZM147.193 45.9381H146.673C146.341 45.9381 146.073 46.1841 146.073 46.488V48.6875H147.193V45.9381ZM151.009 45.9381H150.489V48.6875H151.609V46.488C151.609 46.1841 151.341 45.9381 151.009 45.9381ZM183.764 40.772V41.7416H189.426V42.5664H180.8L179.412 44.7659C179.349 44.8672 179.317 44.9685 179.365 45.0698C179.412 45.1711 179.506 45.2435 179.633 45.2435H184.458C184.569 45.2435 184.679 45.1711 184.726 45.0698C184.774 44.983 184.758 44.8817 184.695 44.7804L183.954 43.4925H187.565L188.574 45.1856C188.701 45.3592 188.716 45.5618 188.622 45.7644C188.511 45.9381 188.322 46.0538 188.086 46.0538H175.832C175.595 46.0538 175.39 45.9236 175.28 45.721C175.201 45.5329 175.264 45.3158 175.406 45.1277L177.046 42.5664H174.507V41.7416H180.169V40.772H183.764ZM159.085 24.4956C159.472 24.4956 159.832 24.6733 160.042 24.9675L163.537 29.8756L166.876 24.9842C167.084 24.6805 167.45 24.4956 167.844 24.4956H171.768L165.339 33.9106V36.9921C165.339 37.4391 165.021 37.8351 164.551 37.9728L161.656 38.8219V33.9412L155.157 24.4956H159.085ZM152.187 24.5261L151.232 27.4913H143.369V30.222H151.65L150.833 32.8917H143.369V35.6428H152.187L151.473 37.8197C151.33 38.2571 150.886 38.557 150.382 38.557H139.597V25.3863C139.597 24.9112 140.022 24.5261 140.546 24.5261H152.187ZM187.465 24.3866C188.093 24.3866 188.603 24.8481 188.603 25.4174V34.1246C188.603 34.7428 188.555 35.2743 188.458 35.7192C188.362 36.1642 188.251 36.5089 188.125 36.7535C187.999 36.998 187.843 37.2188 187.657 37.4158C187.471 37.6128 187.276 37.7707 187.07 37.8896C186.864 38.0085 186.498 38.1477 185.97 38.3074C185.443 38.467 184.817 38.5468 184.094 38.5468H178.839C178.275 38.5468 177.781 38.4772 177.356 38.3379C176.931 38.1987 176.59 38.056 176.331 37.91C176.072 37.7639 175.858 37.5992 175.689 37.4158C175.52 37.2324 175.365 37.0133 175.226 36.7586C175.087 36.5038 174.962 36.1659 174.853 35.7447C174.743 35.3236 174.689 34.7971 174.689 34.1654V24.4243L177.276 24.4313C177.904 24.4331 178.411 24.8941 178.411 25.4622V32.8C178.411 33.357 178.423 33.7442 178.446 33.9616C178.469 34.1789 178.539 34.3878 178.655 34.5882C178.771 34.7886 178.968 34.955 179.247 35.0875C179.526 35.22 179.944 35.2862 180.501 35.2862H182.482C183.132 35.2862 183.563 35.2369 183.776 35.1384C183.988 35.0399 184.177 34.9058 184.343 34.736C184.509 34.5661 184.633 34.3759 184.716 34.1654C184.799 33.9548 184.841 33.5268 184.841 32.8815V24.3937L187.461 24.3866L187.465 24.3866ZM124.862 24.5261L127.46 24.5332C128.087 24.5349 128.595 24.996 128.595 25.5641V35.2251L136.229 35.2047L135.333 37.8113C135.185 38.2426 134.744 38.5363 134.245 38.5358L124.862 38.5264V24.5261Z" fill="white"/>
</g>
<defs>
<clipPath id="clip0_2297_17343">
<rect width="205" height="80" fill="white" transform="translate(0.5)"/>
</clipPath>
</defs>
</svg>
