<svg xmlns="http://www.w3.org/2000/svg" width="25" height="25" viewBox="0 0 25 25">
    <g fill="none" fill-rule="evenodd">
        <g>
            <g>
                <g>
                    <g>
                        <g transform="translate(-818 -535) translate(810 259) translate(0 88) translate(0 180) translate(8 8)">
                            <circle cx="12.5" cy="12.5" r="12.5" fill="#FFF" opacity=".7"/>
                            <path fill="#52B0FB" d="M17.945 6.822c-.137.005-.27.006-.401.006-3.45 0-4.971-1.466-4.984-1.479L12.215 5l-.345.35c-.014.014-1.504 1.478-4.984 1.478-.13 0-.264-.001-.402-.006L6 6.807v6.646c0 1.74.627 4.28 6.045 6.222l.17.06.169-.06c5.418-1.942 6.045-4.481 6.045-6.222V6.807l-.484.015zm-6.263 8.351L8.56 12.445l.829-.662 1.66 1.207s2.292-2.338 4.506-3.431l.316.352s-2.767 2.26-4.189 5.262z"/>
                        </g>
                    </g>
                </g>
            </g>
        </g>
    </g>
</svg>
