<svg width="206" height="80" viewBox="0 0 206 80" fill="none" xmlns="http://www.w3.org/2000/svg">
<g clip-path="url(#clip0_2297_17181)">
<path fill-rule="evenodd" clip-rule="evenodd" d="M50.8034 11.4285C54.57 11.4285 58.0129 13.5579 59.6951 16.9279L85.4736 68.5713H74.1752C70.4086 68.5713 66.9658 66.4419 65.2835 63.0719L50.3913 33.2358C48.2322 29.4859 44.3319 26.9819 39.879 26.9819C33.0853 26.9819 27.5779 32.8103 27.5779 39.9999C27.5779 47.1895 33.0853 53.0179 39.879 53.0179C44.5303 53.0179 48.5786 50.2859 50.6693 46.2555L58.5639 62.0703C53.6001 66.1322 47.2422 68.5713 40.3112 68.5713C24.4386 68.5713 11.5714 55.7795 11.5714 39.9999C11.5714 24.2203 24.4386 11.4285 40.3112 11.4285L40.7713 11.4326L40.7723 11.4285L50.8034 11.4285ZM74.0428 11.4285C77.8093 11.4285 81.2522 13.5579 82.9345 16.9279L108.713 68.5713H97.6958C93.9292 68.5713 90.4863 66.4419 88.8041 63.0719L63.0256 11.4285H74.0428ZM106.705 11.4285C107.391 11.4285 107.947 11.9846 107.947 12.6707C107.947 12.8633 107.902 13.0532 107.816 13.2255L98.5312 31.8265C98.2248 32.4404 97.4788 32.6896 96.8649 32.3832C96.624 32.2629 96.4286 32.0675 96.3083 31.8265L87.0232 13.2255C86.7167 12.6117 86.966 11.8657 87.5798 11.5592C87.7521 11.4732 87.942 11.4285 88.1346 11.4285H106.705Z" fill="white"/>
<path d="M144.565 48.4481C145.175 48.4481 145.711 48.2237 146.173 47.7747C146.635 47.3257 146.866 46.7756 146.866 46.1241C146.866 45.4903 146.635 44.9445 146.173 44.4868C145.711 44.029 145.175 43.8001 144.565 43.8001C143.937 43.8001 143.397 44.029 142.944 44.4868C142.491 44.9445 142.264 45.4903 142.264 46.1241C142.264 46.7756 142.491 47.3257 142.944 47.7747C143.397 48.2237 143.937 48.4481 144.565 48.4481Z" fill="white"/>
<path d="M146.107 68.5707L147.31 61.7307C148.356 54.9875 146.647 51.0966 142.185 50.0578L142.211 54.521C143.71 55.2076 144.233 57.0739 143.78 60.1197L142.159 68.5443L146.107 68.5707Z" fill="white"/>
<path d="M130.592 11.4285C132.296 11.4285 133.718 11.8069 134.858 12.5638C135.916 13.2666 136.783 14.3063 137.459 15.6828L137.612 16.0065L146.395 35.637L146.485 35.8283C146.541 35.9531 146.589 36.0724 146.629 36.1864C146.669 36.3003 146.707 36.4197 146.741 36.5445L146.791 36.7357H139.447L139.399 36.5709C139.368 36.4651 139.336 36.3675 139.304 36.2779L139.232 36.0811L139.16 35.8934L137.864 32.8902H123.464L122.204 35.8568L122.06 36.2962C122.028 36.3939 122.002 36.4916 121.98 36.5892L121.952 36.7357H114.429L114.479 36.5445C114.513 36.4197 114.551 36.3003 114.591 36.1864C114.631 36.0724 114.679 35.9531 114.735 35.8283L114.825 35.637L123.536 16.0065L123.701 15.6584C124.374 14.294 125.231 13.2625 126.272 12.5638C127.4 11.8069 128.84 11.4285 130.592 11.4285ZM171.234 12.4829L171.368 12.6803C171.509 12.8776 171.671 13.0749 171.854 13.2722L178.383 19.8018L185.278 13.2722L185.418 13.1487C185.507 13.0636 185.588 12.9733 185.661 12.8776C185.771 12.7341 185.874 12.6025 185.971 12.4829H194.544L194.375 12.6937C194.202 12.9 194.015 13.0928 193.814 13.2722L182.761 23.7842L195.237 35.9823L195.355 36.1039C195.43 36.1863 195.5 36.2713 195.565 36.359C195.663 36.4906 195.76 36.6161 195.857 36.7357H186.409L186.277 36.5429C186.14 36.3545 185.989 36.1796 185.825 36.0182L177.982 27.9818L169.701 36.0182L169.524 36.1976L169.355 36.377C169.245 36.4966 169.142 36.6161 169.045 36.7357H160.363L160.46 36.5982C160.525 36.5105 160.59 36.4308 160.654 36.359C160.752 36.2514 160.873 36.1258 161.019 35.9823L173.751 23.7842L165.608 16.0154L156.669 25.865V36.7357H150.089V25.4345L139.051 13.3081L138.942 13.1976C138.806 13.056 138.704 12.9374 138.637 12.8417C138.553 12.7221 138.487 12.6025 138.44 12.4829H146.458L146.512 12.5866C146.552 12.661 146.599 12.746 146.655 12.8417C146.739 12.9852 146.865 13.1407 147.033 13.3081L153.145 19.9453L153.246 20.0357C153.38 20.1429 153.515 20.1965 153.649 20.1965C153.817 20.1965 153.984 20.1128 154.152 19.9453L160.229 13.3081L160.376 13.1556C160.605 12.9065 160.76 12.6823 160.84 12.4829H171.234ZM130.628 17.8011C130.412 17.8011 130.208 17.856 130.016 17.9659C129.856 18.0574 129.721 18.2126 129.611 18.4313L129.548 18.5702L125.84 27.4332H135.488L131.744 18.5702L131.668 18.4178C131.56 18.2264 131.429 18.0818 131.276 17.9842C131.084 17.8621 130.868 17.8011 130.628 17.8011Z" fill="white"/>
<path d="M136.668 46.9685C138.743 46.9509 139.78 46.2115 139.78 44.7502V43.6146H115.673V46.9685H136.668ZM121.556 49.6887C122.131 49.6887 122.637 49.561 123.073 49.3058C123.508 49.0505 123.726 48.738 123.726 48.3682C123.726 48.0161 123.508 47.7036 123.073 47.4307C122.637 47.1578 122.131 47.0214 121.556 47.0214C120.946 47.0214 120.427 47.1578 120 47.4307C119.573 47.7036 119.36 48.0161 119.36 48.3682C119.36 48.738 119.573 49.0505 120 49.3058C120.427 49.561 120.946 49.6887 121.556 49.6887ZM128.328 49.7151C128.903 49.7151 129.409 49.5875 129.844 49.3322C130.28 49.0769 130.498 48.7644 130.498 48.3946C130.498 48.0425 130.28 47.73 129.844 47.4571C129.409 47.1842 128.903 47.0478 128.328 47.0478C127.718 47.0478 127.199 47.1842 126.772 47.4571C126.345 47.73 126.132 48.0425 126.132 48.3946C126.132 48.7644 126.345 49.0769 126.772 49.3322C127.199 49.5875 127.718 49.7151 128.328 49.7151ZM123.962 68.3865C125.443 68.7034 127.099 68.5889 128.929 68.0431L130.969 67.2773L133.113 68.4393L140.067 68.4657L134.498 65.1117L138.839 62.3123C139.919 60.8334 139.64 59.5834 138.002 58.5622H122.628L122.89 57.6115H137.95C139.309 57.5763 139.989 56.9688 139.989 55.7892V54.5216H123.595L123.805 53.6765H119.726V52.805H134.185C135.108 52.805 135.57 52.9987 135.57 53.386V53.9142H139.884V52.356C139.884 50.613 139.187 49.7415 137.793 49.7415L139.048 47.5495H134.42C133.932 49.0109 132.973 49.7503 131.544 49.7679L118.366 49.8207C116.379 49.7679 115.386 50.5514 115.386 52.1712V53.9142H119.595L119.491 54.5216H115.569V57.6115H118.549L115.386 68.4129H119.726L121.922 61.388H134.341L131.073 63.131L129.191 62.4708C127.483 61.7489 125.774 61.5905 124.066 61.9954C122.375 62.418 121.46 63.3775 121.321 64.874C121.164 66.6346 122.044 67.8055 123.962 68.3865ZM125.922 65.9304C125.574 65.9304 125.269 65.8556 125.007 65.7059C124.746 65.5563 124.615 65.3846 124.615 65.1909C124.615 64.9973 124.746 64.8256 125.007 64.676C125.269 64.5263 125.574 64.4515 125.922 64.4515C126.271 64.4515 126.572 64.5263 126.825 64.676C127.077 64.8256 127.378 65.0237 127.727 65.2702C127.378 65.411 127.077 65.5563 126.825 65.7059C126.572 65.8556 126.271 65.9304 125.922 65.9304ZM155.154 68.5713C156.478 68.5713 157.149 67.9199 157.167 66.617V55.1554C157.097 52.849 156.086 51.6958 154.134 51.6958H152.461L152.513 48.7116H157.167V45.2519H154.709V43.5882H150.421V45.2519H147.545V48.7116H148.852L148.46 68.4657H152.016L152.382 55.1554H153.506L153.533 68.5713H155.154ZM160.592 48.87H166.553V45.4104H161.664L161.795 43.7466H157.716L157.507 46.6252C157.646 48.1746 158.675 48.9228 160.592 48.87ZM162.082 68.5185C163.738 68.5185 164.575 67.6822 164.592 66.0096V61.4408H166.841V58.0868H164.592V57.0305L166.396 54.099C166.919 51.9687 166.257 50.7627 164.409 50.481H157.925V53.9406H161.847L160.566 56.3702V58.0868H157.716V61.4408H160.566V64.7156C160.566 65.1381 160.357 65.3494 159.938 65.3494H158.527V68.5185H162.082ZM193.353 68.5713L190.895 60.4637L193.614 58.3245L193.562 53.0427L189.431 56.3702L187.967 51.2204H191.209C192.603 51.238 193.405 50.4282 193.614 48.7908V47.7608H187.444L186.555 43.5882H182.162L183.051 47.7608H180.228V51.2204H183.574L185.718 58.8263L181.535 62.0482V66.9075L187.078 63.1574L188.908 68.5713H193.353ZM176.933 68.5449L181.221 68.4921L176.724 58.6678L179.862 48.9492L180.437 46.8893C180.437 45.0583 179.618 44.0459 177.979 43.8522H169.142V47.3119H176.306L174.58 52.4617L173.325 49.3454H169.194L172.488 58.8527L168.933 68.3865H171.861C172.767 68.4569 173.377 68.0431 173.691 67.1452L174.894 63.9497L176.933 68.5449Z" fill="white"/>
<path d="M193.593 44.542L192.091 47.5607C191.894 47.9566 191.416 48.1162 191.024 47.9172C190.871 47.8393 190.747 47.7134 190.67 47.5582L189.184 44.545C188.988 44.1484 189.148 43.6667 189.54 43.4691C189.65 43.414 189.771 43.3851 189.893 43.3849L192.882 43.3795C193.32 43.3787 193.677 43.7372 193.677 44.1803C193.678 44.3059 193.649 44.4298 193.593 44.542Z" fill="white"/>
</g>
<defs>
<clipPath id="clip0_2297_17181">
<rect width="205" height="80" fill="white" transform="translate(0.5)"/>
</clipPath>
</defs>
</svg>
