<svg width="25" height="25" viewBox="0 0 25 25" fill="none" xmlns="http://www.w3.org/2000/svg">
<circle opacity="0.7" cx="12.5" cy="12.5" r="12.5" fill="white"/>
<path fill-rule="evenodd" clip-rule="evenodd" d="M19 16.5624C19 16.5624 15.0454 15.227 14.1377 14.9627L13.9092 14.366C14.6105 13.7464 15.166 12.9934 15.477 11.9917C15.7563 11.6584 16.042 11.1671 16.042 10.5448C16.042 10.3003 15.9159 10.1793 15.75 10.0623C15.7437 8.95774 15.5215 8.02188 15.1153 7.36406C14.5615 6.46785 13.6648 6 12.5 6C10.4671 6 9.25 7.42272 9.25 10.0634V10.0647C9.25 10.0647 8.93264 10.1933 8.95799 10.5955C9.00008 11.2708 9.29842 11.7861 9.60149 12.1154C9.97199 13.1544 10.5814 13.9408 11.167 14.366L10.8623 14.9501C9.86734 15.2666 6 16.5624 6 16.5624V19H19V16.5624Z" fill="url(#paint0_linear_162_37535)"/>
<defs>
<linearGradient id="paint0_linear_162_37535" x1="6" y1="13.7362" x2="19.0003" y2="13.7801" gradientUnits="userSpaceOnUse">
<stop stop-color="#45B0FF"/>
<stop offset="1" stop-color="#179CFF"/>
</linearGradient>
</defs>
</svg>
