<?xml version="1.0" encoding="UTF-8"?>
<svg width="50px" height="50px" viewBox="0 0 50 50" version="1.1" xmlns="http://www.w3.org/2000/svg" xmlns:xlink="http://www.w3.org/1999/xlink">
    <title>v4_logoEntry / icon_key</title>
    <g id="v4_logoEntry-/-icon_key" stroke="none" stroke-width="1" fill="none" fill-rule="evenodd">
        <circle id="椭圆形备份-6" fill="#FFFFFF" opacity="0.400000006" cx="25" cy="25" r="24"></circle>
        <path d="M30.2521565,23.4986877 C28.1806976,23.4986877 26.5001875,21.8230971 26.5001875,19.752156 C26.5001875,17.6809149 28.1806976,16.0026247 30.2521565,16.0026247 C32.3221153,16.0026247 34.0026253,17.6809149 34.0026253,19.752156 C34.0026253,21.8230971 32.3221153,23.4986877 30.2521565,23.4986877 M30.2521565,13 C26.5220903,13 23.5013127,16.0230221 23.5013127,19.752156 C23.5013127,20.8389201 23.7797475,21.8524934 24.2367046,22.7634796 L20.4979372,26.5013123 L17.5005626,23.4986877 L15.9973747,25.0014998 L15.9973747,26.5013123 L14.4971871,26.5013123 L13,27.9981252 L15.9988749,31.0007499 L13,33.9973753 L15.9988749,37 L27.24008,25.7631046 C28.1512939,26.2199475 29.1621203,26.5013123 30.2521565,26.5013123 C33.9807226,26.5013123 37,23.4782902 37,19.752156 C37,16.0230221 33.9807226,13 30.2521565,13" id="Fill-1备份-4" fill="#3181FF"></path>
    </g>
</svg>