<svg width="150" height="60" viewBox="0 0 150 60" fill="none" xmlns="http://www.w3.org/2000/svg">
<g clip-path="url(#clip0_6722_69353)">
<g clip-path="url(#clip1_6722_69353)">
<path fill-rule="evenodd" clip-rule="evenodd" d="M70.5873 37.9111C71.2387 37.9111 71.8517 38.2127 72.2404 38.7244L74.7547 42.0345L77.0737 38.7755C77.4362 38.2658 78.0169 37.9498 78.6458 37.9144L78.7643 37.9111H80.3111L73.5487 47.4173C73.1861 47.927 72.6055 48.243 71.9765 48.2784L71.858 48.2817H70.3113L73.4867 43.8173L69 37.9111H70.5873ZM84.1523 37.7687C86.6218 37.7687 88.6284 39.7094 88.6683 42.1182L88.6689 46.6139H88.1008C87.288 46.6139 86.6291 45.9687 86.6291 45.1728V42.1913C86.6291 40.8519 85.5202 39.766 84.1523 39.766C82.7844 39.766 81.6754 40.8519 81.6754 42.1913C81.6754 43.5308 82.7844 44.6166 84.1523 44.6166C84.9121 44.6166 85.592 44.2816 86.0464 43.7542L86.0462 46.2074C85.4702 46.4683 84.8286 46.6139 84.1523 46.6139C81.6578 46.6139 79.6357 44.6338 79.6357 42.1913C79.6357 39.7488 81.6578 37.7687 84.1523 37.7687ZM115.059 44.1376C115.754 44.1376 116.317 44.6893 116.317 45.3699C116.317 46.0504 115.754 46.6021 115.059 46.6021C114.364 46.6021 113.8 46.0504 113.8 45.3699C113.8 44.6893 114.364 44.1376 115.059 44.1376ZM142.594 45.5176C142.594 46.1165 142.099 46.602 141.487 46.602C140.875 46.602 140.38 46.1165 140.38 45.5176V40.5462L140.376 40.4751C140.339 40.0451 139.988 39.7026 139.548 39.6676L139.473 39.6647H138.97C138.495 39.6647 138.105 40.0232 138.067 40.4791L138.064 40.5519V44.4332C138.064 45.5957 137.13 46.5447 135.956 46.5995L135.849 46.602V40.5519C135.849 38.9016 137.185 37.5569 138.856 37.4979L138.97 37.4959H139.473C140.241 37.4959 140.944 37.7672 141.487 38.2172C142.003 37.7895 142.663 37.5234 143.386 37.4979L143.5 37.4959H144.004C145.689 37.4959 147.063 38.804 147.123 40.4399L147.125 40.5519V46.602C145.902 46.602 144.91 45.631 144.91 44.4332V40.5519C144.91 40.0864 144.544 39.7046 144.078 39.6676L144.004 39.6647H143.5C143.025 39.6647 142.635 40.0232 142.597 40.4791L142.594 40.5462V45.5176ZM125.223 37.6067C125.223 38.8317 124.209 39.8248 122.958 39.8248H121.226C119.975 39.8248 118.961 40.8178 118.961 42.0428C118.961 43.2328 119.918 44.204 121.119 44.2585L121.226 44.2609H122.958C124.173 44.2609 125.165 45.198 125.22 46.3745L125.223 46.479H121.226C118.724 46.479 116.695 44.4928 116.695 42.0428C116.695 39.6366 118.652 37.6778 121.092 37.6086L121.226 37.6067H125.223ZM131.263 37.6067C133.209 37.6067 134.787 39.1515 134.787 41.057V43.0286C134.787 44.9342 133.209 46.479 131.263 46.479H128.746C126.8 46.479 125.223 44.9342 125.223 43.0286V41.057C125.223 39.1515 126.8 37.6067 128.746 37.6067H131.263ZM90.6932 37.9111C91.3446 37.9111 91.9576 38.2127 92.3463 38.7244L93.6685 40.4646L94.9911 38.7244C95.357 38.2428 95.9215 37.9473 96.5297 37.9142L96.6442 37.9111H98.2315L94.9799 42.1907L98.2315 46.4709H96.6442C95.9928 46.4709 95.3798 46.1693 94.9911 45.6576L93.6685 43.9168L92.3463 45.6576C91.9804 46.1392 91.4159 46.4347 90.8077 46.4678L90.6932 46.4709H89.1059L92.3572 42.1907L89.1059 37.9111H90.6932ZM101.782 37.9111V45.0299C101.782 45.8257 101.123 46.4709 100.31 46.4709H99.4504V39.3522C99.4504 38.5563 100.109 37.9111 100.922 37.9111H101.782ZM108.192 37.7687C110.489 37.7687 112.42 39.406 112.706 41.579L112.709 41.6207V46.4712H112.438C111.315 46.4712 110.403 45.5922 110.378 44.4988L110.378 42.1913C110.378 41.0094 109.399 40.0514 108.192 40.0514C107 40.0514 106.032 40.9853 106.007 42.1465L106.007 44.4538C106.007 45.568 105.084 46.4712 103.946 46.4712H103.676V41.6207L103.678 41.5783C103.964 39.4053 105.895 37.7687 108.192 37.7687ZM131.264 39.7751H128.747C128.052 39.7751 127.483 40.3056 127.441 40.9756L127.438 41.0567V43.0283C127.438 43.7088 127.98 44.2655 128.664 44.3073L128.747 44.3098H131.264C131.959 44.3098 132.527 43.7793 132.57 43.1093L132.573 43.0283V41.0567C132.573 40.3761 132.031 39.8195 131.347 39.7776L131.264 39.7751ZM100.543 34.7727C101.227 34.7727 101.782 35.3156 101.782 35.9853C101.782 36.6551 101.227 37.198 100.543 37.198C99.8593 37.198 99.3049 36.6551 99.3049 35.9853C99.3049 35.3156 99.8593 34.7727 100.543 34.7727Z" fill="white"/>
<path fill-rule="evenodd" clip-rule="evenodd" d="M145.764 21.0531C146.654 21.0531 147.376 21.9137 147.376 22.9752L147.376 23.2154H147.408V29.7023C147.408 31.0292 146.506 32.1049 145.392 32.1049H141.563C140.784 32.1049 140.152 31.3519 140.152 30.4231V29.9426H144.586V23.4557H133.688V24.1765H143.911V24.657C143.911 25.5664 143.305 26.3073 142.549 26.3378L142.5 26.3387H133.688V27.0595H143.911V27.54C143.911 28.4495 143.305 29.1904 142.549 29.2208L142.5 29.2218H133.688L133.689 29.7023C133.689 31.0292 132.786 32.1049 131.673 32.1049H130.867V21.1327L130.881 21.1324V21.0531H145.764ZM96.2149 22.4968V23.4578H100.044V24.1785C100.044 25.1074 99.4127 25.8603 98.6335 25.8603H96.2149V30.4252C96.2149 31.354 95.5833 32.107 94.8041 32.107H93.3933L93.3933 32.0899C92.7096 31.9734 92.184 31.2724 92.184 30.4252V29.7044H93.3933V25.8603H90.5716C89.7924 25.8603 89.1608 25.1074 89.1608 24.1785V23.4578H93.3933V22.4968H96.2149ZM76.6588 16.9922V29.6986H79.2789V16.9922H82.1006V29.6986H87.3408V30.4193C87.3408 31.3482 86.7092 32.1011 85.93 32.1011H70.4108C69.6317 32.1011 69 31.3482 69 30.4193V29.6986H73.8371V16.9922H76.6588ZM122.82 13.3665V15.0483H128.402V15.7691C128.402 16.6979 127.771 17.4509 126.991 17.4509H122.82V27.0611H124.774V27.7818C124.774 28.7107 124.143 29.4636 123.364 29.4636H122.82V32.1064H119.998V29.4636H119.393C118.614 29.4636 117.982 28.7107 117.982 27.7818V27.0611H119.998V17.4509H115.967C115.188 17.4509 114.556 16.6979 114.556 15.7691V15.0483H119.998V13.3665H122.82ZM108.71 13.3665L108.321 15.3724C108.195 16.0265 107.706 16.4898 107.143 16.4898H103.469V19.6132H108.508V20.3339C108.508 21.0957 108.083 21.7392 107.501 21.946L107.5 29.7039C107.5 31.0308 106.598 32.1064 105.485 32.1064H104.679V22.0157H103.873C103.732 22.0157 103.597 21.9914 103.469 21.9461L103.469 29.7039C103.469 31.0308 102.567 32.1064 101.454 32.1064H100.648V15.7691C100.648 14.8596 101.253 14.1187 102.01 14.0883L102.059 14.0873H105.749L105.888 13.3665H108.71ZM118.712 18.5295L117.411 30.0226C117.276 31.2145 116.423 32.1039 115.414 32.1039H114.354L115.89 18.5295H118.712ZM127.051 18.5295L128.587 32.1039H127.528C126.537 32.1039 125.697 31.2472 125.538 30.0885L125.53 30.0226L124.229 18.5295H127.051ZM92.5871 26.5785L91.9167 30.9236C91.8111 31.6077 91.3108 32.1044 90.7273 32.1044H88.9128L89.7654 26.5785H92.5871ZM99.1922 26.5785L100.045 32.1044H98.2303C97.663 32.1044 97.1744 31.6349 97.0507 30.9802L97.041 30.9236L96.3705 26.5785H99.1922ZM114.556 13.3665L112.962 18.9376L113.951 18.9377V29.7039C113.951 31.0308 113.049 32.1064 111.936 32.1064H111.129L111.13 21.9436C110.972 21.9909 110.807 22.0157 110.639 22.0157H109.259L111.734 13.3665H114.556ZM69.7411 17.9315C71.0492 17.9315 72.1569 19.0816 72.3364 20.6261L73.1459 27.5908H71.8782C70.8719 27.5908 70.0199 26.7061 69.8818 25.5179L69 17.9315H69.7411ZM87.2536 17.9315L86.3718 25.5179C86.2363 26.6841 85.413 27.5579 84.4312 27.5899L84.3754 27.5908H83.1077L83.9172 20.6261C84.0938 19.1065 85.1689 17.9687 86.4494 17.9324L86.5125 17.9315H87.2536ZM92.7886 16.7299L93.4336 19.613H95.7715L96.4165 16.7299H99.2381L98.5932 19.613H100.044V20.3337C100.044 21.2625 99.4127 22.0155 98.6335 22.0155H90.5716C89.7924 22.0155 89.1608 21.2625 89.1608 20.3337V19.613H90.6119L89.967 16.7299H92.7886ZM140.333 13.3665V14.0468H147.716V14.7676C147.716 15.6964 147.084 16.4494 146.305 16.4494H146.027L147.367 20.5741H130.679L131.98 16.4494H131.667C130.888 16.4494 130.256 15.6964 130.256 14.7676V14.0468H137.512V13.3665H140.333ZM143.226 16.4491H134.822L134.235 18.3712H143.813L143.226 16.4491ZM96.0134 13.125V14.086H100.044V14.8068C100.044 15.7356 99.4127 16.4886 98.6335 16.4886H90.5716C89.7924 16.4886 89.1608 15.7356 89.1608 14.8068V14.086H93.1917V13.125H96.0134ZM87.3408 14.0624V14.7832C87.3408 15.712 86.7092 16.465 85.93 16.465H70.4108C69.6317 16.465 69 15.712 69 14.7832V14.0624H87.3408Z" fill="white"/>
</g>
<path fill-rule="evenodd" clip-rule="evenodd" d="M11.7414 12.5485H1.85449L7.07926 27.8346C7.52138 29.1281 8.75782 30 10.1501 30H20.037L14.8122 14.7139C14.3701 13.4203 13.1336 12.5485 11.7414 12.5485ZM46.4758 40.4531C47.5945 42.1468 48.3764 43.3327 48.6324 43.725C50.1151 45.9973 51.5654 47.4516 53.6358 47.4516L64.9365 47.4516L53.4274 29.9394C58.9593 21.5774 64.9365 12.5485 64.9365 12.5485L53.5495 12.5485C50.9616 12.5485 49.8401 14.0869 48.8049 15.8176L46.4758 19.3617L44.1466 15.8176C43.1114 14.0869 41.99 12.5485 39.402 12.5485H38.4049H28.2275C28.2216 12.5485 28.2158 12.5485 28.21 12.5485L28.015 12.5485C28.015 12.5485 28.0159 12.5499 28.0178 12.5528C26.3438 12.6234 25.6215 13.5692 24.9024 15.8392C24.0734 18.4565 19.4803 32.0906 16.9911 39.1893C16.3682 40.9655 15.4864 42.1618 13.0983 42.1618H7.04942C7.04942 42.1618 7.83114 44.4521 8.17857 45.361C8.19291 45.3986 8.20731 45.4366 8.22184 45.4749C8.55932 46.3655 8.97086 47.4516 10.5259 47.4516H20.0089C24.7532 47.4516 26.6082 46.7849 28.1421 42.4732C28.7731 40.6998 30.7185 35.0043 32.9088 28.5922C33.5466 26.725 34.2052 24.797 34.8581 22.8875C36.3516 25.1444 37.9558 27.5687 39.5241 29.9394L28.015 47.4516L39.3157 47.4516C41.3861 47.4516 42.8364 45.9973 44.3191 43.725C44.5751 43.3327 45.357 42.1468 46.4758 40.4531Z" fill="white"/>
</g>
<defs>
<clipPath id="clip0_6722_69353">
<rect width="150" height="60" fill="white"/>
</clipPath>
<clipPath id="clip1_6722_69353">
<rect width="78.75" height="37.5" fill="white" transform="translate(69 11.25)"/>
</clipPath>
</defs>
</svg>
