<?xml version="1.0" encoding="UTF-8"?>
<svg width="50px" height="50px" viewBox="0 0 50 50" version="1.1" xmlns="http://www.w3.org/2000/svg" xmlns:xlink="http://www.w3.org/1999/xlink">
    <title>v4_logoEntry / sign-icon-dun@2x</title>
    <g id="v4_logoEntry-/-sign-icon-dun@2x" stroke="none" stroke-width="1" fill="none" fill-rule="evenodd">
        <circle id="椭圆形备份-6" fill="#FFFFFF" opacity="0.400000006" cx="25" cy="25" r="24"></circle>
        <path d="M34.2214916,15.9677827 C34.0014356,15.97514 33.7857164,15.9778794 33.5752176,15.9778794 C28.0228589,15.9778794 25.5764624,13.5903789 25.5554206,13.5685028 L25.001546,13 L24.445503,13.5685028 C24.4227344,13.5931182 22.025449,15.9778794 16.4263485,15.9778794 C16.2152072,15.9778794 16.0009336,15.97514 15.778669,15.9677827 L15,15.9428542 L15,26.7680449 C15,29.6025365 16.0082822,33.7380844 24.7278413,36.9005991 L24.9999799,37 L25.271998,36.9005991 C33.991517,33.7379279 35,29.6025365 35,26.7680449 L35,15.9428542 L34.2214916,15.9677827 L34.2214916,15.9677827 Z M24.1433677,29.5689202 L19.1191435,25.1260905 L20.4530925,24.0479427 L23.1247252,26.0138111 C23.1247252,26.0138111 26.8128319,22.2049557 30.3751292,20.4252487 L30.8831856,20.9980563 C30.8831856,20.9980563 26.4318298,24.6806648 24.1433677,29.5689202 L24.1433677,29.5689202 Z" id="形状" fill="#3181FF"></path>
    </g>
</svg>