<svg width="240" height="88" viewBox="0 0 240 88" fill="none" xmlns="http://www.w3.org/2000/svg">
<path d="M71.1588 23.9564H82.0016C83.8335 23.9564 85.3186 25.4414 85.3186 27.2733V61.1493H90.4912L85.3186 65.388H74.4757C72.6438 65.388 71.1588 63.903 71.1588 62.0711V27.3974H70.4476C68.8674 27.3974 67.32 27.8489 65.9878 28.6988L63.8294 30.0757L66.1881 26.0582L71.1588 23.9564Z" fill="url(#paint0_linear_1577_104334)"/>
<path fill-rule="evenodd" clip-rule="evenodd" d="M82.0019 23.8953H71.1591L71.019 23.9563H76.3751C78.207 23.9563 79.692 25.4413 79.692 27.2732V56.0816C79.692 60.1285 82.2779 63.6055 85.9316 64.8858L90.4915 61.1493H85.3188V27.2123C85.3188 25.3804 83.8338 23.8953 82.0019 23.8953Z" fill="url(#paint1_linear_1577_104334)"/>
<path fill-rule="evenodd" clip-rule="evenodd" d="M96.0173 23.9563H101.644L87.6615 60.0883C86.4254 63.2824 83.3529 65.3879 79.928 65.3879L86.5311 65.3879C89.9575 65.3879 93.0311 63.2806 94.266 60.0844L108.25 23.8953H97.0231C96.6838 23.8953 96.3481 23.916 96.0173 23.9563Z" fill="url(#paint2_linear_1577_104334)"/>
<path d="M37.4537 29.3171C38.6567 26.0607 41.7607 23.8984 45.2322 23.8984H57.0526L43.069 60.0853C41.834 63.2813 38.7605 65.3886 35.3341 65.3886H23.4226H12.7863C11.6339 65.3886 10.5641 64.7905 9.96061 63.8088L8.37207 61.2248H19.8894C23.3608 61.2248 26.4649 59.0624 27.6679 55.8061L37.4537 29.3171Z" fill="url(#paint3_linear_1577_104334)"/>
<path fill-rule="evenodd" clip-rule="evenodd" d="M29.7723 65.3885H35.5327C38.9591 65.3885 42.0327 63.2811 43.2677 60.085L57.2513 23.8953H51.7163L37.3943 59.5697C36.1032 62.7858 33.1587 64.9984 29.7723 65.3885Z" fill="#E8F2FA"/>
<path d="M56.4913 65.3879L70.4734 29.2557C71.7094 26.0617 74.782 23.9562 78.207 23.9562H70.0348C66.6098 23.9562 63.5373 26.0617 62.3013 29.2557L48.3191 65.3879H56.4913Z" fill="white"/>
<path d="M59.6661 65.327C63.1362 65.327 66.2393 63.1664 67.4433 59.912L79.2295 28.0533L79.8829 26.7931C80.4695 25.6619 81.2967 24.6728 82.3064 23.8953H70.152C68.7688 23.8953 67.4431 24.2387 66.2726 24.8586C67.4141 24.2772 68.6976 23.9562 70.0348 23.9562H78.207C74.782 23.9562 71.7094 26.0617 70.4734 29.2557L56.5148 65.327H59.6661Z" fill="white"/>
<path fill-rule="evenodd" clip-rule="evenodd" d="M59.6895 65.3886C63.1634 65.3886 66.2691 63.2233 67.4703 59.9636L79.2296 28.0534L79.8829 26.7932C80.4695 25.6619 81.2967 24.6728 82.3065 23.8954H78.5061H70.159C70.1533 23.8954 70.1477 23.8954 70.142 23.8954H78.1553C74.7249 23.8954 71.6487 26.0076 70.4165 29.2091L56.4914 65.388H48.4677L48.4675 65.3886H59.6895Z" fill="url(#paint4_linear_1577_104334)"/>
<path d="M89.2444 29.3146C90.4472 26.0579 93.5514 23.8953 97.0231 23.8953H108.25L94.266 60.0845C93.031 63.2806 89.9575 65.388 86.5311 65.388H76.6964H74.1267L74.9267 64.5841C75.4504 64.0579 75.924 63.4841 76.3414 62.8701C77.082 61.7808 77.6872 60.6053 78.1436 59.3696L89.2444 29.3146Z" fill="url(#paint5_linear_1577_104334)"/>
<path fill-rule="evenodd" clip-rule="evenodd" d="M79.9245 65.3879H86.531C89.9574 65.3879 93.031 63.2806 94.266 60.0844L108.25 23.8953H101.64L87.6596 60.0839C86.4248 63.2803 83.3511 65.3879 79.9245 65.3879Z" fill="#E8F2FA"/>
<path d="M125.654 27.1517C124.776 27.0794 124.3 26.6101 124.226 25.7436C124.3 24.8772 124.776 24.4078 125.654 24.3356H140.376C141.255 24.4078 141.731 24.8772 141.804 25.7436C141.731 26.6101 141.255 27.0794 140.376 27.1517H134.443V43.5062H141.365C142.244 43.5784 142.72 44.0478 142.793 44.9142C142.72 45.7807 142.244 46.25 141.365 46.3222H124.226C123.347 46.25 122.871 45.7807 122.798 44.9142C122.871 44.0478 123.347 43.5784 124.226 43.5062H131.257V27.1517H125.654ZM117.635 47.9469C116.756 47.5136 116.463 46.8277 116.756 45.889C117.854 43.0008 118.733 40.4375 119.392 38.1991C119.759 37.3326 120.454 37.0438 121.48 37.3326C122.285 37.7659 122.578 38.4157 122.359 39.2822C122.066 40.0764 121.553 41.5567 120.821 43.7228C120.308 45.2391 119.942 46.3222 119.722 46.9721C119.282 47.9107 118.587 48.2357 117.635 47.9469ZM119.722 34.6249C119.209 34.1917 118.074 33.3252 116.316 32.0255C115.73 31.4479 115.657 30.798 116.096 30.076C116.756 29.4983 117.488 29.4261 118.294 29.8594C118.88 30.2204 120.052 31.0508 121.809 32.3505C122.468 33.0003 122.542 33.6863 122.029 34.4083C121.297 35.0582 120.528 35.1304 119.722 34.6249ZM120.711 27.5849C120.491 27.3683 119.942 26.935 119.063 26.2852C118.257 25.6353 117.708 25.2021 117.415 24.9855C116.829 24.3356 116.792 23.6858 117.305 23.0359C118.037 22.4583 118.77 22.4222 119.502 22.9276C119.649 23.072 120.015 23.3248 120.601 23.6858C121.699 24.5523 122.432 25.0938 122.798 25.3104C123.53 26.0325 123.567 26.7184 122.908 27.3683C122.249 28.0181 121.516 28.0903 120.711 27.5849Z" fill="white"/>
<path d="M145.693 27.1517C144.888 27.0794 144.448 26.6823 144.375 25.9603C144.448 25.166 144.888 24.7328 145.693 24.6606H156.35V23.3609C156.423 22.4222 156.899 21.9168 157.778 21.8445C158.73 21.9168 159.243 22.4222 159.316 23.3609V24.6606H170.083C170.815 24.7328 171.218 25.166 171.291 25.9603C171.218 26.6823 170.815 27.0794 170.083 27.1517H159.316V29.5344H167.886C169.057 29.6066 169.68 30.1843 169.753 31.2674V44.3727C169.753 46.6833 168.655 47.8385 166.457 47.8385C165.871 47.9107 164.7 47.9469 162.942 47.9469C161.99 47.8746 161.44 47.4414 161.294 46.6472C161.367 45.7807 161.77 45.3113 162.502 45.2391C162.722 45.2391 163.125 45.2752 163.711 45.3475C164.224 45.3475 164.59 45.3475 164.809 45.3475C166.201 45.4197 166.86 44.8059 166.787 43.5062V32.6754C166.86 32.0977 166.64 31.845 166.128 31.9172H149.758C149.246 31.9172 148.989 32.1699 148.989 32.6754V47.0804C148.916 47.9469 148.44 48.4162 147.561 48.4884C146.682 48.4162 146.206 47.9469 146.133 47.0804V31.2674C146.206 30.1843 146.792 29.6066 147.891 29.5344H156.35V27.1517H145.693ZM151.516 37.9825C150.857 37.9103 150.491 37.5493 150.417 36.8994C150.491 36.2496 150.857 35.8885 151.516 35.8163H154.043C153.823 35.5997 153.567 35.2387 153.274 34.7332C153.054 34.4444 152.908 34.2639 152.834 34.1917C152.541 33.5418 152.725 33.0003 153.384 32.5671C154.043 32.2782 154.665 32.4227 155.251 33.0003C155.398 33.1447 155.618 33.4335 155.911 33.8668C156.277 34.3 156.497 34.6249 156.57 34.8415C156.789 35.1304 156.863 35.4553 156.789 35.8163H158.657C158.877 35.5275 159.28 34.9138 159.866 33.9751C160.232 33.4696 160.452 33.1447 160.525 33.0003C160.964 32.2782 161.623 32.0616 162.502 32.3505C163.162 32.6393 163.345 33.1808 163.052 33.9751C162.905 34.1195 162.539 34.5888 161.953 35.3831C161.88 35.5997 161.807 35.7441 161.733 35.8163H164.26C164.919 35.8885 165.286 36.2496 165.359 36.8994C165.286 37.5493 164.883 37.9103 164.15 37.9825H159.316V40.257H164.809C165.542 40.3292 165.945 40.7263 166.018 41.4484C165.945 42.0982 165.542 42.4592 164.809 42.5314H159.316V46.1056C159.243 46.9721 158.767 47.4414 157.888 47.5136C157.009 47.4414 156.533 46.9721 156.46 46.1056V42.5314H150.967C150.234 42.4592 149.832 42.0982 149.758 41.4484C149.832 40.7263 150.234 40.3292 150.967 40.257H156.46V37.9825H151.516Z" fill="white"/>
<path d="M182.212 29.7511C181.406 29.6788 180.967 29.2456 180.893 28.4514C181.04 27.6571 181.479 27.2239 182.212 27.1517H188.254V23.2526C188.327 22.3861 188.803 21.9168 189.682 21.8445C190.561 21.9168 191.037 22.3861 191.11 23.2526V27.1517H197.812C198.618 27.2239 199.057 27.6571 199.13 28.4514C199.057 29.2456 198.618 29.6788 197.812 29.7511H192.319C194.223 34.0112 196.567 37.4409 199.35 40.0403C200.156 40.7624 200.266 41.5206 199.68 42.3148C198.947 42.9647 198.252 42.9647 197.592 42.3148C194.882 39.6432 192.722 36.2496 191.11 32.1338V40.6902H194.187C194.992 40.7624 195.432 41.1956 195.505 41.9899C195.432 42.7842 194.992 43.2174 194.187 43.2896H191.11V46.9721C191.037 47.8385 190.561 48.3079 189.682 48.3801C188.803 48.3079 188.327 47.8385 188.254 46.9721V43.2896H185.178C184.446 43.1452 184.006 42.712 183.86 41.9899C183.933 41.1956 184.372 40.7624 185.178 40.6902H188.254V32.3505C186.716 36.394 184.592 39.7876 181.882 42.5314C181.223 43.2535 180.527 43.2896 179.795 42.6397C179.209 41.8455 179.282 41.1234 180.014 40.4736C183.017 37.3687 185.361 33.7946 187.046 29.7511H182.212ZM173.642 36.2496C173.203 35.9607 172.983 35.5997 172.983 35.1665C172.983 34.7332 173.093 34.3361 173.313 33.9751C175.437 30.5092 177.121 26.9711 178.366 23.3609C178.733 22.4944 179.355 22.1334 180.234 22.2778C181.113 22.6388 181.443 23.2165 181.223 24.0107C180.564 25.8159 179.905 27.5488 179.245 29.2095V47.0804C179.172 47.9469 178.696 48.4162 177.817 48.4884C177.011 48.4162 176.572 47.9469 176.499 47.0804V34.3L175.51 35.708C174.924 36.4301 174.302 36.6106 173.642 36.2496Z" fill="white"/>
<path d="M206.975 48.3801C206.096 48.3079 205.62 47.8024 205.546 46.8638V35.3831C205.693 34.3722 206.279 33.7946 207.304 33.6502H223.893C224.919 33.8668 225.505 34.4444 225.651 35.3831V44.3727C225.798 46.6833 224.589 47.8385 222.026 47.8385C221.806 47.8385 221.33 47.8385 220.598 47.8385C219.572 47.9107 218.84 47.9469 218.4 47.9469C217.595 47.9469 217.082 47.5497 216.862 46.7555C216.789 46.0334 217.119 45.6002 217.851 45.4558C218.217 45.4558 218.803 45.4919 219.609 45.5641C220.268 45.5641 220.707 45.5641 220.927 45.5641C222.172 45.6363 222.758 45.0947 222.685 43.9394V43.5062H208.513V46.8638C208.439 47.8024 207.927 48.3079 206.975 48.3801ZM203.349 26.8267C202.617 26.7545 202.214 26.3935 202.141 25.7436C202.214 25.0216 202.617 24.6245 203.349 24.5523H214.445C214.226 24.0468 214.116 23.6858 214.116 23.4692C213.896 22.3861 214.335 21.7723 215.434 21.6279C216.166 21.7001 216.679 22.0612 216.972 22.711C217.265 23.5775 217.485 24.1912 217.631 24.5523H227.739C228.398 24.6245 228.764 25.0216 228.837 25.7436C228.837 26.3935 228.471 26.7545 227.739 26.8267H220.927C221.293 27.0433 221.879 27.4405 222.685 28.0181C224.955 29.5344 226.493 30.5814 227.299 31.1591C227.812 31.6645 227.848 32.2421 227.409 32.892C226.75 33.3974 226.054 33.4335 225.322 33.0003C224.809 32.5671 224.223 32.1338 223.564 31.7006C217.778 31.7006 212.358 31.8089 207.304 32.0255C206.352 32.0255 205.693 31.7006 205.327 31.0508C205.107 30.3287 205.363 29.6788 206.096 29.1012C206.608 28.8124 207.597 28.1625 209.062 27.1517C207.963 27.8737 208.11 27.7654 209.501 26.8267H203.349ZM208.513 39.6071V41.5567H222.685V39.6071H208.513ZM208.513 36.3579V37.6576H222.685V36.3579C222.612 35.9968 222.355 35.7802 221.916 35.708H209.172C208.732 35.708 208.513 35.9246 208.513 36.3579ZM218.4 27.9098C218.034 27.621 217.888 27.26 217.961 26.8267H213.676C212.211 27.9098 210.966 28.7402 209.941 29.3178C209.868 29.39 209.831 29.4983 209.831 29.6427C209.904 29.715 210.014 29.7511 210.161 29.7511C211.113 29.7511 212.761 29.7511 215.104 29.7511C217.668 29.6788 219.536 29.6427 220.707 29.6427C220.561 29.4983 220.341 29.3539 220.048 29.2095C219.609 28.8485 219.059 28.4153 218.4 27.9098Z" fill="white"/>
<path d="M121.216 64.3689V55.7015C121.26 55.0499 121.542 54.7457 122.063 54.7892C122.628 54.7457 122.91 55.0499 122.91 55.7015V64.3689C122.867 66.7583 121.672 67.9748 119.327 68.0183C117.547 67.9748 116.396 67.1276 115.875 65.4767C115.702 64.9119 115.897 64.5209 116.461 64.3037C116.896 64.1734 117.221 64.3906 117.439 64.9554C117.829 65.9546 118.459 66.4542 119.327 66.4542C120.587 66.4542 121.216 65.7591 121.216 64.3689Z" fill="white"/>
<path d="M128.525 67.1059V56.0925C128.525 55.2236 128.829 54.7892 129.437 54.7892C129.871 54.7457 130.283 55.0281 130.674 55.6364L136.406 64.7599V55.7015C136.406 55.0499 136.688 54.7457 137.253 54.7892C137.774 54.8326 138.035 55.1367 138.035 55.7015V66.6497C138.035 67.5621 137.752 68.0183 137.188 68.0183C136.797 68.0617 136.428 67.8228 136.08 67.3014L130.218 57.8521V67.1059C130.175 67.6707 129.893 67.9748 129.371 68.0183C128.85 68.0617 128.568 67.7576 128.525 67.1059Z" fill="white"/>
<path d="M147.427 67.1711V56.6139H144.366C143.628 56.6139 143.28 56.3532 143.324 55.8319C143.324 55.354 143.671 55.115 144.366 55.115H152.182C152.833 55.115 153.159 55.3757 153.159 55.897C153.159 56.3749 152.833 56.6139 152.182 56.6139H149.056V67.1711C149.056 67.7359 148.795 68.0183 148.274 68.0183C147.753 68.0183 147.471 67.7359 147.427 67.1711Z" fill="white"/>
<path d="M162.161 66.9756V62.6745L158.057 56.1577C157.667 55.5495 157.71 55.1367 158.188 54.9195C158.752 54.7023 159.165 54.8543 159.425 55.3757L162.943 61.1105L166.46 55.3757C166.851 54.7675 167.285 54.6154 167.763 54.9195C168.24 55.1367 168.284 55.5712 167.893 56.2229L163.789 62.6745V66.9756C163.789 67.6707 163.529 68.0183 163.008 68.0183C162.4 68.0617 162.118 67.7141 162.161 66.9756Z" fill="white"/>
<path d="M174.615 68.0183C173.877 67.9314 173.486 67.5186 173.443 66.7801C173.486 66.0849 173.877 65.7157 174.615 65.6722C175.353 65.7157 175.744 66.0849 175.787 66.7801C175.744 67.5621 175.353 67.9748 174.615 68.0183Z" fill="white"/>
<path d="M187.004 68.0183C183.443 67.8445 181.576 65.6288 181.402 61.3711C181.663 57.2873 183.552 55.0933 187.069 54.7892C189.067 54.8761 190.434 55.6364 191.173 57.0701C191.39 57.7217 191.151 58.1345 190.456 58.3082C190.152 58.3082 189.892 58.1127 189.674 57.7217C189.023 56.8094 188.155 56.3315 187.069 56.288C184.637 56.5922 183.313 58.2865 183.096 61.3711C183.226 64.6295 184.529 66.3239 187.004 66.4542C188.393 66.4108 189.349 65.7157 189.87 64.3689C190.044 63.8475 190.326 63.6086 190.717 63.652C191.325 63.6955 191.585 64.043 191.498 64.6947C190.804 66.8235 189.305 67.9314 187.004 68.0183Z" fill="white"/>
<path d="M202.389 66.5194C204.908 66.4325 206.232 64.7164 206.362 61.3711C206.232 58.0693 204.908 56.3749 202.389 56.288C199.784 56.4184 198.394 58.1127 198.22 61.3711C198.351 64.7164 199.74 66.4325 202.389 66.5194ZM202.324 68.0183C198.676 67.8879 196.787 65.6722 196.657 61.3711C196.787 57.1135 198.676 54.9195 202.324 54.7892C205.972 54.963 207.882 57.1569 208.056 61.3711C207.926 65.6722 206.015 67.8879 202.324 68.0183Z" fill="white"/>
<path d="M215.494 58.6341V66.9104C215.494 67.6924 215.19 68.0617 214.583 68.0183C214.061 68.0617 213.801 67.6924 213.801 66.9104V56.0274C213.801 55.2019 214.17 54.7892 214.908 54.7892C215.473 54.7892 215.864 55.1367 216.081 55.8319L219.924 65.216L223.767 55.8319C224.071 55.1367 224.462 54.7892 224.939 54.7892C225.677 54.7892 226.046 55.2019 226.046 56.0274V66.9104C226.046 67.6924 225.786 68.0617 225.265 68.0183C224.7 68.0617 224.418 67.6924 224.418 66.9104V58.6341L220.901 67.1711C220.684 67.7359 220.358 68.0183 219.924 68.0183C219.489 68.0183 219.185 67.7576 219.012 67.2362L215.494 58.6341Z" fill="white"/>
<defs>
<linearGradient id="paint0_linear_1577_104334" x1="73.8343" y1="40.0559" x2="77.5087" y2="65.4877" gradientUnits="userSpaceOnUse">
<stop offset="0.0485434" stop-color="#D9EAF6"/>
<stop offset="1" stop-color="#E8F2FA"/>
</linearGradient>
<linearGradient id="paint1_linear_1577_104334" x1="73.2121" y1="23.8953" x2="73.2121" y2="64.8858" gradientUnits="userSpaceOnUse">
<stop stop-color="#E8F2FA"/>
<stop offset="1" stop-color="#F4F9FC"/>
</linearGradient>
<linearGradient id="paint2_linear_1577_104334" x1="66.1337" y1="63.6725" x2="99.5282" y2="23.007" gradientUnits="userSpaceOnUse">
<stop stop-color="#1E5DD9"/>
<stop offset="1" stop-color="#84C6FF"/>
</linearGradient>
<linearGradient id="paint3_linear_1577_104334" x1="36.9828" y1="23.8984" x2="36.9828" y2="65.3886" gradientUnits="userSpaceOnUse">
<stop offset="0.0001" stop-color="#F4F9FD"/>
<stop offset="1" stop-color="white"/>
</linearGradient>
<linearGradient id="paint4_linear_1577_104334" x1="61.2858" y1="23.8954" x2="61.2858" y2="65.3886" gradientUnits="userSpaceOnUse">
<stop stop-color="#E8F2FA"/>
<stop offset="1" stop-color="#F4F9FC"/>
</linearGradient>
<linearGradient id="paint5_linear_1577_104334" x1="93.5312" y1="23.8953" x2="93.5312" y2="65.3879" gradientUnits="userSpaceOnUse">
<stop stop-color="white"/>
<stop offset="1" stop-color="white"/>
</linearGradient>
</defs>
</svg>
