<svg xmlns="http://www.w3.org/2000/svg" width="25" height="25" viewBox="0 0 25 25">
    <g fill="none" fill-rule="evenodd">
        <g>
            <g>
                <g>
                    <g>
                        <g transform="translate(-818 -355) translate(809 259) translate(0 88) translate(1) translate(8 8)">
                            <circle cx="12.5" cy="12.5" r="12.5" fill="#FFF" opacity=".7"/>
                            <path fill="#D2B79C" d="M19 16.562s-3.955-1.335-4.862-1.6l-.229-.596c.702-.62 1.257-1.373 1.568-2.374.28-.334.565-.825.565-1.447 0-.245-.126-.366-.292-.483-.006-1.104-.228-2.04-.635-2.698C14.561 6.468 13.665 6 12.5 6c-2.033 0-3.25 1.423-3.25 4.063v.002s-.317.128-.292.53c.042.676.34 1.191.643 1.52.371 1.04.98 1.826 1.566 2.251l-.305.584C9.867 15.267 6 16.562 6 16.562V19h13v-2.438z"/>
                        </g>
                    </g>
                </g>
            </g>
        </g>
    </g>
</svg>
