<svg xmlns="http://www.w3.org/2000/svg" width="25" height="25" viewBox="0 0 25 25">
    <g fill="none" fill-rule="evenodd">
        <g>
            <g>
                <g>
                    <g>
                        <g transform="translate(-818 -475) translate(809 259) translate(0 88) translate(1 120) translate(8 8)">
                            <circle cx="12.5" cy="12.5" r="12.5" fill="#FFF" opacity=".7"/>
                            <path fill="#D2B79C" d="M14.212 8.488v1.749H10.69l.023-1.75c0-.966-.093-1.75.874-1.75h1.75c.968 0 .875.784.875 1.75zm-.875 7.874h-1.75l.602-1.805c-.347-.116-.602-.434-.602-.82 0-.484.392-.875.875-.875.484 0 .875.391.875.875 0 .386-.254.704-.601.82l.601 1.805zm2.625-6.125V7.612c0-1.45-1.175-2.625-2.625-2.625h-1.75c-1.45 0-2.625 1.174-2.625 2.625v2.625c-.875 0-1.75.784-1.75 1.75v5.252c0 .965.786 1.748 1.752 1.748h6.998c.967 0 1.75-.783 1.75-1.748v-5.252c0-.966-.875-1.75-1.75-1.75z"/>
                        </g>
                    </g>
                </g>
            </g>
        </g>
    </g>
</svg>
