<svg xmlns="http://www.w3.org/2000/svg" width="25" height="25" viewBox="0 0 25 25">
    <g fill="none" fill-rule="evenodd">
        <g>
            <g>
                <g>
                    <g transform="translate(-818 -478) translate(792 322) translate(18 148) translate(8 8)">
                        <circle cx="12.5" cy="12.5" r="12.5" fill="#FFF" opacity=".7"/>
                        <path fill="#D2B79C" d="M16.343 11.687c-1.122 0-2.032-.908-2.032-2.03 0-1.122.91-2.03 2.032-2.03 1.12 0 2.03.908 2.03 2.03 0 1.122-.91 2.03-2.03 2.03m0-5.687c-2.02 0-3.656 1.637-3.656 3.657 0 .59.15 1.138.398 1.632l-2.025 2.024-1.623-1.626-.814.814v.812h-.812L7 14.124l1.624 1.626L7 17.374 8.624 19l6.087-6.087c.494.248 1.041.4 1.632.4 2.019 0 3.654-1.637 3.654-3.656 0-2.02-1.635-3.657-3.654-3.657"/>
                    </g>
                </g>
            </g>
        </g>
    </g>
</svg>
