<svg width="206" height="80" viewBox="0 0 206 80" fill="none" xmlns="http://www.w3.org/2000/svg">
<g clip-path="url(#clip0_2297_17439)">
<path d="M29.2719 49.814C30.8679 43.7678 35.1564 33.3422 38.7878 25.9643C42.4838 18.4553 46.7315 11.4227 48.97 9.91508C50.9184 8.60282 63.1478 9.58109 61.5284 11.8414C58.7895 15.6644 53.7684 23.2745 50.7785 27.9687C45.5461 36.1836 35.4006 55.5065 37.4276 57.0054C38.561 57.8435 44.1937 40.0973 53.6708 32.2708C62.1746 25.2482 71.3454 31.2716 68.5397 40.5365C65.734 49.8013 58.3321 70.311 72.5597 61.479C72.5597 61.479 67.102 70.6747 61.1209 70.6747C56.1475 70.6747 53.1635 66.9467 56.3962 55.2657C58.0378 49.3339 59.3978 44.9046 60.506 42.0988C61.6142 39.293 59.4109 38.2866 57.5872 40.0042C54.6338 42.7858 50.7608 49.872 46.0787 59.4058C41.3966 68.9395 37.0019 71.4248 32.3419 70.2839C26.8217 68.9325 26.442 60.5345 29.2719 49.814Z" fill="white"/>
<path d="M137.774 40.0962V42.301H145.369V46.3957L143.945 46.3965L146.094 68.9795H141.209L140.737 64.9793H137.774V69.8614L132.669 69.8299V67.4046C132.669 65.7877 132.112 64.9793 130.998 64.9793H129.706L129.171 69.011L124.317 68.9795L126.71 46.3965L125.515 46.3957V42.301H132.669V40.0962H137.774ZM178.176 56.223V60.3806H161.284L157.124 65.4833L169.384 65.4203C170.182 65.1053 170.392 64.6328 170.014 64.0029L169.163 62.2075H174.678L178.46 69.7669H173.071L171.936 67.8141C170.739 69.2 169.226 69.8719 167.398 69.8299H152.838C150.653 69.41 149.918 67.9611 150.632 65.4833L154.887 60.3806H149.12V56.223H178.176ZM102.792 40.0962V44.3484L112.562 41.5451V46.3012L102.792 49.199V51.7818C102.792 52.2858 103.045 52.5377 103.549 52.5377H113.571V56.6954H101.595V59.3097H113.823V60.7271C113.823 62.533 113.056 63.4359 111.522 63.4359H101.595V69.8299H96.1743V66.3022C96.1743 64.3913 95.3129 63.4359 93.5901 63.4359H84.0726V59.3097H96.1743V56.0655H99.1998C98.1913 55.5405 97.7081 54.5536 97.7501 53.1047V50.6479L94.4725 51.4983V46.4902L97.6871 45.6398V40.0962H102.792ZM125.074 40.3482C124.296 45.3878 122.699 49.157 120.283 51.6558L123.403 51.6873V67.0581C123.403 68.906 122.269 69.8299 120 69.8299H118.298V53.4512L116.375 54.2071L116.344 48.1911C118.256 46.9312 119.59 44.3169 120.346 40.3482H125.074ZM137.774 46.3957V60.8846H140.39L138.951 46.3965L137.774 46.3957ZM132.669 46.3957L131.566 46.3965L130.148 60.8846H132.669V46.3957ZM94.6616 40.2222C92.9808 43.036 91.0899 45.1988 88.9889 46.7107L92.0774 46.7422V54.7741C92.0774 56.307 91.2055 57.0734 89.4616 57.0734H87.098V48.0021L84.5768 49.1045V44.1594C86.3417 43.1935 87.8754 41.8811 89.178 40.2222H94.6616ZM172.031 40.0962C173.544 40.0962 174.563 40.7682 175.088 42.112L178.46 51.2463H177.042V53.8291H150.38V51.2463H148.363L152.87 40.1592H158.385L154.981 49.6715H172.252L170.802 45.7028C170.466 44.7368 169.52 44.2539 167.966 44.2539H158.952V40.0962H172.031ZM145.13 10.4795L144.918 11.003C143.633 14.1855 140.544 16.2694 137.11 16.2694H134.878V27.3221C134.878 31.1832 132.249 34.5488 128.501 35.4857L127.23 35.8035V16.2694H117.306L117.309 16.082C117.408 12.9711 119.962 10.4795 123.099 10.4795H145.13ZM92.7829 10.4795V20.0211H107.156L107.156 18.2077C107.166 13.9396 110.636 10.4876 114.906 10.4976L114.892 27.8434C114.889 32.1112 111.426 35.5691 107.156 35.5691V25.6126H92.7829V27.9252C92.7829 32.1555 89.3675 35.5932 85.135 35.6232L85.1208 18.1617C85.1173 13.927 88.5458 10.4895 92.7829 10.4795ZM155.197 10.4615V20.0031H169.571L169.571 18.1896C169.581 13.9215 173.05 10.4696 177.321 10.4795V27.8049C177.321 32.083 173.851 35.551 169.571 35.551V25.5946H155.197L155.202 27.959V27.9925C155.192 32.2068 151.766 35.615 147.55 35.6051L147.535 18.1437C147.532 13.909 150.96 10.4714 155.197 10.4615Z" fill="white"/>
</g>
<defs>
<clipPath id="clip0_2297_17439">
<rect width="205" height="80" fill="white" transform="translate(0.5)"/>
</clipPath>
</defs>
</svg>
