<svg width="150" height="60" viewBox="0 0 150 60" fill="none" xmlns="http://www.w3.org/2000/svg">
<path fill-rule="evenodd" clip-rule="evenodd" d="M65.8536 14.6342H85.8528V14.8271C85.8528 15.7645 85.0929 16.5244 84.1554 16.5244H81.5864V21.0836H85.8528V21.2765C85.8528 22.214 85.0929 22.9739 84.1554 22.9739H81.5864V31.4683C81.5864 32.3718 80.854 33.1043 79.9504 33.1043H78.7246V22.9739H72.8851L71.8527 31.6613C71.7549 32.4844 71.057 33.1043 70.2281 33.1043H68.822L70.0259 22.9739H67.551C66.6136 22.9739 65.8537 22.214 65.8537 21.2765V21.0836H70.2506L70.7924 16.5244H67.551C66.6136 16.5244 65.8536 15.7645 65.8536 14.8271V14.6342ZM78.7246 16.5244V21.0836H73.1098L73.6516 16.5244H78.7246ZM109.994 14.6343H113.08L109.917 20.8553H111.041V32.065C111.041 32.8782 110.381 33.5374 109.568 33.5374H108.189V21.4918H106.506L109.994 14.6343ZM120.911 14.6443H118.051V16.2764H112.405V16.4376C112.405 17.3751 113.165 18.135 114.102 18.135H118.051V30.0427H116.155V31.9013H118.051V33.5372H120.911V31.9013H122.795V30.0427H120.911V18.135H124.965C125.902 18.135 126.662 17.3751 126.662 16.4376V16.2764H120.911V14.6443ZM117.235 19.8382H114.472L112.299 33.5372H113.665C114.469 33.5372 115.154 32.9522 115.281 32.1575L117.235 19.8382ZM124.415 19.8382H121.652L123.607 32.1575C123.733 32.9522 124.418 33.5372 125.223 33.5372H126.589L124.415 19.8382ZM135.586 14.6442H138.289V16.2773H146.341V16.4591C146.341 17.3966 145.581 18.1565 144.644 18.1565H133.687L132.285 20.4938H141.493L140.472 18.8939H143.716L145.914 22.3395H142.67L142.67 22.3394H131.178L131.178 22.3397H128.061L128.061 22.3394H128.01L128.107 22.2632L130.57 18.1565H129.403C128.466 18.1565 127.706 17.3966 127.706 16.4591V16.2773H135.586V14.6442ZM128.551 22.9241H129.276H131.354H142.553H143.904H145.46V32.0649C145.46 32.8781 144.801 33.5373 143.987 33.5373H138.073C137.135 33.5373 136.375 32.7773 136.375 31.8399V31.7283L142.553 31.7279L142.553 24.7209H131.354V25.9061H141.7V26.1007C141.7 26.9805 140.987 27.6936 140.107 27.6936H131.354V28.7911H141.7V28.9857C141.7 29.8655 140.987 30.5787 140.107 30.5787H131.354V32.0649C131.354 32.8781 130.695 33.5373 129.882 33.5373H128.551V22.9241ZM103.923 15.0673H88.8738V15.2602C88.8738 16.1977 89.6338 16.9576 90.5712 16.9576H102.226C103.163 16.9576 103.923 16.1977 103.923 15.2602V15.0673ZM100.095 31.4394V31.4355H91.8798L95.0927 23.4068H103.949C104.887 23.4068 105.647 22.6469 105.647 21.7095V21.5165H87.1477V21.7095C87.1477 22.6469 87.9076 23.4068 88.8451 23.4068H91.962L87.7189 33.3072H100.095V33.3067H101.859C103.693 33.3067 105.18 31.8198 105.18 29.9856C105.18 28.1513 103.693 26.6644 101.859 26.6644H95.6028L95.6027 28.4578C95.6027 28.5014 95.6381 28.5368 95.6817 28.5369L101.252 28.5412C102.052 28.5419 102.7 29.1905 102.7 29.9904C102.7 30.7907 102.051 31.4395 101.251 31.4395L100.095 31.4394ZM68.358 38.0283H66.6636V46.8809H68.358L68.3579 44.4702L69.4362 43.5909L72.8608 46.8809H74.9065L70.5627 42.5371L73.443 39.8924H71.1939L68.3579 42.2895L68.358 38.0283ZM85.4325 38.9689C85.4325 38.4596 85.8541 38.0453 86.376 38.0453C86.8979 38.0453 87.3195 38.4596 87.3195 38.9689C87.3195 39.4782 86.8979 39.8925 86.376 39.8925C85.8541 39.8925 85.4325 39.4782 85.4325 38.9689ZM85.535 40.4039H87.2294V46.8986H85.535V40.4039ZM89.9097 40.4039H91.8065L93.6522 44.6415L95.8997 40.4039H97.7965L92.9811 49.3902H91.2873L92.5726 46.6909L89.9097 40.4039ZM107.731 47.0189V40.4831L111.267 40.4846L111.408 40.4904C112.884 40.5736 113.664 41.3398 113.707 42.7441L113.708 42.946L113.708 47.0189H112.054L112.055 43.1117L112.05 42.9367L112.041 42.8293C111.965 42.0943 111.576 41.7186 110.841 41.6736L110.685 41.6689L109.425 41.6685L109.425 47.0189H107.731ZM131.237 46.575C132.336 46.575 133.191 46.2415 133.802 45.5745C134.306 45.0266 134.558 44.3695 134.558 43.6033C134.558 42.845 134.304 42.1918 133.796 41.6439C133.173 40.973 132.34 40.6375 131.296 40.6375C130.162 40.6375 129.287 40.973 128.672 41.6439C128.164 42.1998 127.91 42.837 127.91 43.5556C127.91 44.3537 128.162 45.0266 128.666 45.5745C129.277 46.2415 130.134 46.575 131.237 46.575ZM131.238 45.2441C130.721 45.2441 130.301 45.0516 129.977 44.6665C129.714 44.3575 129.582 44.0028 129.582 43.6026C129.582 43.2074 129.714 42.8553 129.977 42.5463C130.301 42.1612 130.721 41.9687 131.238 41.9687C131.693 41.9687 132.082 42.127 132.403 42.4437C132.725 42.7603 132.886 43.1466 132.886 43.6026C132.886 44.0636 132.726 44.4525 132.407 44.7691C132.088 45.0858 131.698 45.2441 131.238 45.2441ZM123.906 46.5512C124.35 46.5512 124.775 46.4499 125.18 46.2474V44.6836C124.831 44.9219 124.493 45.041 124.168 45.041C123.779 45.041 123.319 44.9159 123.065 44.6658C122.811 44.4156 122.612 43.9983 122.612 43.6092C122.612 43.2201 122.811 42.7631 123.065 42.5129C123.319 42.2628 123.779 42.1377 124.168 42.1377C124.497 42.1377 124.834 42.2588 125.18 42.501V40.9769C124.783 40.7705 124.358 40.6672 123.906 40.6672C122.898 40.6672 122.099 41.0087 121.508 41.6916C121.032 42.2395 120.794 42.8787 120.794 43.6092C120.794 44.3358 121.032 44.975 121.508 45.5268C122.099 46.2097 122.898 46.5512 123.906 46.5512ZM117.449 46.4618C117.647 46.4618 117.816 46.3924 117.955 46.2534C118.094 46.1144 118.163 45.9457 118.163 45.7472C118.163 45.5487 118.094 45.3809 117.955 45.244C117.816 45.107 117.647 45.0385 117.449 45.0385C117.243 45.0385 117.069 45.107 116.928 45.244C116.787 45.3809 116.717 45.5487 116.717 45.7472C116.717 45.9457 116.787 46.1144 116.928 46.2534C117.069 46.3924 117.243 46.4618 117.449 46.4618ZM139.025 46.3666V43.6331C139.025 43.3671 139.039 43.1577 139.066 43.0048C139.094 42.8519 139.14 42.7318 139.203 42.6445C139.374 42.3983 139.612 42.2753 139.917 42.2753C140.247 42.2753 140.491 42.4182 140.649 42.704C140.729 42.847 140.768 43.1567 140.768 43.6331V46.3666H142.36V43.6331C142.36 43.2043 142.421 42.8907 142.544 42.6921C142.719 42.4102 142.969 42.2693 143.294 42.2693C143.588 42.2693 143.808 42.3983 143.955 42.6564C144.054 42.8311 144.104 43.1567 144.104 43.6331V46.3666H145.697V42.7755C145.697 42.438 145.665 42.1562 145.602 41.9298C145.495 41.5566 145.013 40.7447 144.181 40.7447C143.405 40.7626 143.229 40.8956 142.836 41.1973C142.649 41.3403 142.481 41.5348 142.33 41.781L142.296 41.7271C142.143 41.4866 142.007 41.2717 141.837 41.1386L141.779 41.0927C141.469 40.8497 141.396 40.792 140.81 40.7507C140.386 40.7507 140.001 40.844 139.656 41.0306C139.465 41.1338 139.255 41.2966 139.025 41.5189V40.84H137.439V46.3666H139.025ZM100.456 41.1888L98.8022 44.1533L98.8024 44.5182L98.8002 44.7257C98.8185 46.1074 99.5109 46.8805 100.84 47.0021L100.975 47.0121L101.172 47.0189L101.395 47.0169L104.78 47.0166V40.5204H103.085L103.086 45.831L101.74 45.8308C100.94 45.8046 100.526 45.4311 100.464 44.675L100.457 44.5695L100.456 41.1888ZM75.8403 43.6908C75.8403 41.7977 77.458 40.2593 79.4566 40.2593C81.0641 40.2593 82.475 41.2668 82.926 42.7213C83.0255 43.0424 83.0718 43.3546 83.0817 43.7614L83.0838 43.9421L83.0834 46.8987H81.471L81.4712 43.9563L81.4666 43.7564L81.4594 43.6301C81.4504 43.5094 81.4359 43.4043 81.415 43.3072C81.2247 42.425 80.4052 41.79 79.4566 41.79C78.3545 41.79 77.4573 42.6393 77.4573 43.6908C77.4573 44.7416 78.3536 45.5918 79.4515 45.5919C79.7363 45.5857 79.9364 45.5498 80.1864 45.4611L80.3207 45.4146C80.3638 45.3986 80.4051 45.3822 80.4446 45.3654L80.507 45.3364V46.9757L80.4335 46.9972C80.1797 47.064 79.8509 47.1063 79.4487 47.1226C77.458 47.1225 75.8403 45.5841 75.8403 43.6908Z" fill="white"/>
<path fill-rule="evenodd" clip-rule="evenodd" d="M50.6347 39.1773C50.8855 38.8449 51.5191 38.5886 50.6987 39.829C49.8783 41.0695 48.9785 41.9198 48.4745 42.404C38.9353 51.5667 25.8345 48.371 21.2781 45.5879C17.8676 43.3674 15.8309 37.7473 19.2645 33.2698C20.6937 32.5267 23.952 30.4116 26.2427 28.468C24.0226 32.9293 23.8279 37.0767 25.9447 40.8123C29.1901 46.1857 43.0686 49.3522 50.6347 39.1773Z" fill="white"/>
<path fill-rule="evenodd" clip-rule="evenodd" d="M40.1247 12.9835C41.357 10.8673 32.3213 9.58577 31.1903 12.8284C29.9486 16.1456 22.2497 25.9111 14.972 32.4853C13.1143 34.1634 11.0447 35.9887 9.48938 36.789C10.3406 37.0159 30.789 27.1791 40.1247 12.9835Z" fill="white"/>
<path fill-rule="evenodd" clip-rule="evenodd" d="M49.4093 40.7965C50.0218 40.8526 50.0305 40.9194 51.5149 38.8545C52.9993 36.7897 55.1738 31.9623 54.8446 26.4142C54.5498 23.9503 54.3315 21.2755 52.0774 17.3826C50.0147 13.8732 46.3443 13.0567 44.0515 14.2076C41.8209 15.3271 40.6676 18.2584 42.5893 20.8594C45.0035 23.6428 49.7033 22.1779 48.4673 19.496C47.638 17.785 45.1323 18.4004 45.1214 20.0182C43.9109 18.627 45.1821 16.7941 47.2054 17.3795C49.6968 18.078 52.0422 22.1903 52.797 25.4151C53.3143 27.825 54.1534 34.8404 49.4093 40.7965Z" fill="white"/>
<path d="M10.3224 27.8039C8.37477 31.9785 7.85789 33.0865 5.36991 38.7322C2.50911 45.224 3.67466 47.1233 5.66816 48.0107C8.9023 49.0082 13.979 48.5662 18.388 45.0474C16.0041 46.4393 12.814 46.683 11.5903 45.7965C10.358 44.6855 10.9292 42.6583 13.1344 37.6625C16.374 30.3238 17.3917 28.271 19.0564 24.9132C19.4841 24.0506 19.9545 23.1019 20.5162 21.9552C20.8273 21.3201 21.1339 20.7126 21.4272 20.1315C23.7246 15.579 25.206 12.6435 21.6603 10.7358C18.1902 8.86865 12.0833 11.2923 9.33018 12.9769C8.45599 13.4723 7.50109 14.1321 6.51241 15.028C4.87875 16.6216 4.88233 18.5498 5.81842 19.6345C6.51233 20.3828 7.50076 20.313 8.29346 19.96C9.33741 19.4065 10.0005 18.0504 10.5468 16.9331C10.574 16.8774 10.601 16.8224 10.6276 16.768C8.72431 18.9722 7.5723 18.381 7.6184 17.2062C7.71081 16.2812 8.99701 15.0782 10.4216 14.0308C10.4228 14.0305 10.4239 14.0303 10.4251 14.03C15.3905 11.0817 16.8297 14.163 15.8173 16.2555C15.4354 17.072 15.1056 17.7461 14.7006 18.5738C14.0051 19.9952 13.0881 21.8693 11.3057 25.695C10.9382 26.4839 10.6142 27.1783 10.3224 27.8039Z" fill="white"/>
<path fill-rule="evenodd" clip-rule="evenodd" d="M39.3402 36.3272L42.9429 34.4336L43.375 31.2751L40.5112 29.3222L37.3388 29.9591L36.8371 34.1887L39.3402 36.3272ZM45.7398 30.4913L45.3856 26.9716C44.9198 26.6415 43.863 25.9041 43.2396 25.5393L40.3146 26.2519L40.3698 29.0172L43.5597 31.1432L45.7398 30.4913ZM39.2018 38.699L41.8991 40.1097L44.6804 38.3489L45.1833 35.9336L43.1728 34.5058L39.4831 36.4324L39.2018 38.699ZM35.2672 28.0611L32.6638 30.004V33.0178L34.6376 35.3462L36.4358 34.1724L36.9761 29.782L35.2672 28.0611ZM37.1153 25.7259L37.0825 25.7399L36.6448 24.4185C34.6658 25.3167 33.0857 26.962 32.2466 29.003L32.722 29.7423L35.0742 27.9661L35.0599 27.9496L37.1153 25.7259ZM37.4283 25.6123L40.4989 25.9928L42.9576 25.4097L42.8479 24.0865C42.0196 23.8264 41.137 23.6849 40.2222 23.6849C39.0751 23.6849 37.9781 23.9056 36.9761 24.3078L37.4283 25.6123ZM47.3449 33.2814L47.3583 33.1861L48.8668 33.5251C48.9144 33.1521 48.9392 32.7728 48.9392 32.3871C48.9392 30.146 48.1125 28.0973 46.7489 26.5201L45.7398 26.9632L46.081 30.264L47.3449 33.2814ZM48.9391 33.8387L47.5322 33.525L47.5011 33.7482L47.4021 33.7359L47.4192 33.6161L45.4663 35.9098L44.9051 38.4115L46.051 38.8157L46.1253 38.8487C47.5862 37.556 48.6052 35.8083 48.9391 33.8387ZM35.284 39.6893L35.7242 38.7886L34.5964 35.9597L32.5859 33.525L31.6902 34.2277C32.1583 36.4983 33.4758 38.4418 35.284 39.6893ZM35.5781 39.7603L35.3069 39.6551C36.7027 40.5599 38.377 41.0872 40.1771 41.0872C40.5387 41.0872 40.8942 41.0655 41.2453 41.0231L41.5667 40.2127L38.8062 38.8519L35.9825 38.9699L35.5781 39.7603ZM40.1277 23.2931C45.16 23.2931 49.2394 27.3708 49.2394 32.3996C49.2394 37.4278 45.16 41.506 40.1277 41.506C35.096 41.506 31.0166 37.4278 31.0166 32.3996C31.0166 27.3708 35.096 23.2931 40.1277 23.2931ZM40.1054 22.5757C34.6901 22.5757 30.2991 26.9674 30.2991 32.3829C30.2991 37.7984 34.6901 42.1895 40.1054 42.1895C45.5207 42.1895 49.9129 37.7984 49.9129 32.3829C49.9129 26.9674 45.5207 22.5757 40.1054 22.5757Z" fill="white"/>
</svg>
