<svg width="25" height="25" viewBox="0 0 25 25" fill="none" xmlns="http://www.w3.org/2000/svg">
<circle opacity="0.7" cx="12.5" cy="12.5" r="12.5" fill="white"/>
<path fill-rule="evenodd" clip-rule="evenodd" d="M14.2124 8.48794V10.2371H10.6902L10.7133 8.48794C10.7133 7.52071 10.6202 6.73706 11.5874 6.73706H13.3374C14.3046 6.73706 14.2124 7.52071 14.2124 8.48794ZM13.3374 16.3621H11.5874L12.1889 14.5575C11.842 14.4413 11.5874 14.1233 11.5874 13.7371C11.5874 13.2534 11.9787 12.8621 12.4624 12.8621C12.9461 12.8621 13.3374 13.2534 13.3374 13.7371C13.3374 14.1233 13.0828 14.4413 12.7358 14.5575L13.3374 16.3621ZM15.9624 10.2371V7.61206C15.9624 6.16114 14.7875 4.98706 13.3374 4.98706H11.5874C10.1374 4.98706 8.9624 6.16114 8.9624 7.61206V10.2371C8.0874 10.2371 7.2124 11.0207 7.2124 11.9871V17.2388C7.2124 18.2036 7.99763 18.9871 8.96415 18.9871H15.9615C16.9288 18.9871 17.7124 18.2036 17.7124 17.2388V11.9871C17.7124 11.0207 16.8374 10.2371 15.9624 10.2371Z" fill="url(#paint0_linear_162_37525)"/>
<defs>
<linearGradient id="paint0_linear_162_37525" x1="7.2124" y1="13.3183" x2="17.7127" y2="13.345" gradientUnits="userSpaceOnUse">
<stop stop-color="#45B0FF"/>
<stop offset="1" stop-color="#179CFF"/>
</linearGradient>
</defs>
</svg>
