<svg width="25" height="25" viewBox="0 0 25 25" fill="none" xmlns="http://www.w3.org/2000/svg">
<circle cx="12.5" cy="12.5" r="11.7119" fill="#FEF9F4" fill-opacity="0.9" stroke="#2599F8" stroke-width="1.57621"/>
<path opacity="0.3" fill-rule="evenodd" clip-rule="evenodd" d="M11.5 12.5001L22.6992 7.3728C22.6992 7.3728 25.1884 12.4671 22.6005 17.4378" fill="#2599F8"/>
<path d="M18 12.5C18 15.2614 15.7614 17.5 13 17.5C10.2386 17.5 8 15.2614 8 12.5C8 9.73858 10.2386 7.5 13 7.5C15.7614 7.5 18 9.73858 18 12.5Z" fill="url(#paint0_linear_162_37548)"/>
<path d="M18 12.5C18 15.2614 15.7614 17.5 13 17.5C10.2386 17.5 8 15.2614 8 12.5C8 9.73858 10.2386 7.5 13 7.5C15.7614 7.5 18 9.73858 18 12.5Z" fill="url(#paint1_linear_162_37548)"/>
<defs>
<linearGradient id="paint0_linear_162_37548" x1="8" y1="18.8581" x2="18" y2="18.8581" gradientUnits="userSpaceOnUse">
<stop stop-color="#62B3FF"/>
<stop stop-color="#62B3FF"/>
<stop offset="1" stop-color="#3D72FA"/>
</linearGradient>
<linearGradient id="paint1_linear_162_37548" x1="8" y1="13.4509" x2="18.0002" y2="13.4847" gradientUnits="userSpaceOnUse">
<stop stop-color="#45B0FF"/>
<stop offset="1" stop-color="#179CFF"/>
</linearGradient>
</defs>
</svg>
